<svg height="128" viewBox="0 0 448 128" width="448" xmlns="http://www.w3.org/2000/svg"><g transform="matrix(.99933081 0 0 .99756686 -253.83002 -214.36981)"><g fill="#c02126"><path d="m374.3 323.6h-7v4.3h6.8v2.5h-6.8v6h7v2.5h-9.6v-18h9.6z"/><path d="m376.7 327.7h2.5v1c.5-.5.9-.9 1.3-1.1s.8-.3 1.4-.3c1.2 0 2.2.6 2.9 1.7.8-1.1 1.9-1.7 3.2-1.7 2.5 0 3.7 1.5 3.7 4.6v7h-2.5v-6.3c0-1.1-.1-1.9-.4-2.3-.3-.5-.7-.7-1.3-.7-.7 0-1.2.3-1.5.8s-.5 1.4-.5 2.6v5.8h-2.5v-6.3c0-2-.6-3-1.7-3-.7 0-1.2.3-1.6.8-.3.5-.5 1.4-.5 2.6v5.8h-2.5z"/><path d="m402.6 327.7h2.5v11.3h-2.5v-1.2c-1 1-2.2 1.5-3.4 1.5-1.5 0-2.8-.6-3.8-1.7-1-1.2-1.5-2.6-1.5-4.3s.5-3.1 1.5-4.2 2.2-1.7 3.7-1.7c1.3 0 2.4.5 3.4 1.6zm-6.1 5.6c0 1.1.3 2 .8 2.7.6.7 1.3 1 2.2 1s1.7-.3 2.3-1 .9-1.6.9-2.6-.3-1.9-.9-2.6-1.3-1-2.3-1c-.9 0-1.6.3-2.2 1-.5.6-.8 1.5-.8 2.5z"/><path d="m407.4 323c0-.5.2-.9.5-1.2s.7-.5 1.2-.5.8.2 1.2.5c.3.3.5.7.5 1.2s-.2.9-.5 1.2-.7.5-1.2.5-.8-.2-1.2-.5c-.3-.3-.5-.8-.5-1.2zm2.9 4.7v11.3h-2.5v-11.3z"/><path d="m415.5 319.4v19.6h-2.5v-19.6z"/><path d="m435.5 334.6h-7.5l-1.9 4.4h-2.8l8.6-19.1 8.3 19.1h-2.9zm-1-2.5-2.6-6.1-2.7 6.1z"/><path d="m443.9 327.7v6.5c0 1.9.7 2.8 2.2 2.8 1.4 0 2.2-.9 2.2-2.8v-6.5h2.5v6.6c0 .9-.1 1.7-.3 2.3s-.6 1.1-1.1 1.6c-.9.8-1.9 1.2-3.3 1.2-1.3 0-2.4-.4-3.3-1.2-.5-.5-.9-1-1.1-1.6-.2-.5-.3-1.3-.3-2.3v-6.6z"/><path d="m456 330.1v8.9h-2.5v-8.9h-1.1v-2.4h1.1v-4.2h2.5v4.2h2v2.4z"/><path d="m458.8 333.3c0-1.6.6-3 1.7-4.2 1.1-1.1 2.5-1.7 4.1-1.7s3 .6 4.2 1.7c1.1 1.2 1.7 2.6 1.7 4.3s-.6 3.1-1.7 4.3c-1.1 1.1-2.5 1.7-4.2 1.7-1.6 0-3-.6-4.1-1.7-1.1-1.3-1.7-2.7-1.7-4.4zm2.6 0c0 1.1.3 2 .9 2.7s1.4 1 2.4 1 1.8-.3 2.4-1 .9-1.5.9-2.6-.3-2-.9-2.6c-.6-.7-1.4-1-2.4-1s-1.8.3-2.4 1c-.6.6-.9 1.4-.9 2.5z"/><path d="m472.7 327.7h2.5v1c.5-.5.9-.9 1.3-1.1s.8-.3 1.4-.3c1.2 0 2.2.6 2.9 1.7.8-1.1 1.9-1.7 3.2-1.7 2.5 0 3.7 1.5 3.7 4.6v7h-2.5v-6.3c0-1.1-.1-1.9-.4-2.3-.3-.5-.7-.7-1.3-.7-.7 0-1.2.3-1.5.8s-.5 1.4-.5 2.6v5.8h-2.5v-6.3c0-2-.6-3-1.7-3-.7 0-1.2.3-1.6.8-.3.5-.5 1.4-.5 2.6v5.8h-2.5z"/><path d="m498.5 327.7h2.5v11.3h-2.5v-1.2c-1 1-2.2 1.5-3.4 1.5-1.5 0-2.8-.6-3.8-1.7-1-1.2-1.5-2.6-1.5-4.3s.5-3.1 1.5-4.2 2.2-1.7 3.7-1.7c1.3 0 2.4.5 3.4 1.6zm-6 5.6c0 1.1.3 2 .8 2.7.6.7 1.3 1 2.2 1s1.7-.3 2.3-1 .9-1.6.9-2.6-.3-1.9-.9-2.6-1.3-1-2.3-1c-.9 0-1.6.3-2.2 1-.5.6-.8 1.5-.8 2.5z"/><path d="m506.4 330.1v8.9h-2.5v-8.9h-1.1v-2.4h1.1v-4.2h2.5v4.2h2v2.4z"/><path d="m509.2 323c0-.5.2-.9.5-1.2s.7-.5 1.2-.5.8.2 1.2.5c.3.3.5.7.5 1.2s-.2.9-.5 1.2-.7.5-1.2.5-.8-.2-1.2-.5-.5-.8-.5-1.2zm2.9 4.7v11.3h-2.5v-11.3z"/><path d="m514.2 333.3c0-1.6.6-3 1.7-4.2 1.1-1.1 2.5-1.7 4.1-1.7s3 .6 4.2 1.7c1.1 1.2 1.7 2.6 1.7 4.3s-.6 3.1-1.7 4.3c-1.1 1.1-2.5 1.7-4.2 1.7-1.6 0-3-.6-4.1-1.7-1.1-1.3-1.7-2.7-1.7-4.4zm2.6 0c0 1.1.3 2 .9 2.7s1.4 1 2.4 1 1.8-.3 2.4-1 .9-1.5.9-2.6-.3-2-.9-2.6c-.6-.7-1.4-1-2.4-1s-1.8.3-2.4 1c-.6.6-.9 1.4-.9 2.5z"/><path d="m528.1 327.7h2.5v1c.9-.9 1.9-1.4 3-1.4 1.3 0 2.3.4 3 1.2.6.7.9 1.9.9 3.5v6.9h-2.5v-6.3c0-1.1-.2-1.9-.5-2.3s-.8-.7-1.6-.7-1.4.3-1.8.9c-.3.6-.5 1.6-.5 3v5.5h-2.5z"/><path d="m597.3 260.3h-12.1v6c-4.2-4.7-9.9-7.3-16.4-7.3-14.2 0-24.5 11.8-24.5 28.1 0 15.7 10.3 27.2 24.4 27.2 6.6 0 11.6-2.2 16.5-7.5v7.3c0 10.9-4.3 16.3-13.3 16.3-4.8 0-9.6-2.4-11.7-6.1-1.2-2.1-1.6-4.1-2-8.6h-11.8c.1 15.7 9.8 25.5 25.4 25.5 8.9 0 16.7-3.6 21-10.1 3.5-5 4.5-9.6 4.5-19.8zm-26.3 9.4c8.7 0 14.7 6.8 14.7 16.7 0 10.2-5.8 17-14.5 17-8.8 0-14.5-6.6-14.5-16.8-.1-10.2 5.6-16.9 14.3-16.9z"/></g><path d="m364.5 260.3v52.3h12v-27c0-11.1 3-15.9 9.7-15.9 5.4 0 8 4.5 8 13.9v29h12v-27c0-11.2 3-15.9 9.7-15.9 5.8 0 8 3.9 8 13.8v29.1h12v-32.3c0-14-6-21.4-17.6-21.4-6.4 0-11.7 2.7-15.4 7.7-3.2-5-8.1-7.7-13.9-7.7-5.2 0-7.9 1.4-12.4 6.2v-4.8z" fill="#646569"/><path d="m481.1 260.3v6.1c-5.2-5.3-9.7-7.5-16.3-7.5-14 0-24.7 11.7-24.7 27.2 0 16.4 10.4 28.1 25 28.1 6.3 0 10.4-1.9 16-7.1v5.5h12.1v-52.3zm-14.2 9.4c8.8 0 14.9 7 14.9 16.8 0 10.1-6.1 16.9-14.9 16.9-8.5 0-14.5-7.1-14.5-16.9 0-9.7 6.2-16.8 14.5-16.8z" fill="#646569"/><path d="m514.8 260.3h-12.1v52.3h12.1zm-5.9-29.1c-4.5 0-8 3.5-8 7.8s3.6 8 7.8 8c4.4 0 8-3.6 8-8s-3.5-7.8-7.8-7.8z" fill="#646569"/><path d="m525.90002 217.89999h12.1v94.699997h-12.1z" fill="#646569"/><path d="m616.6 260.3h-12.1v30.3c0 8.2 1.5 12.7 5.5 17 4.2 4.3 9.9 6.6 16.8 6.6 7 0 12.7-2.2 16.9-6.6 4-4.3 5.5-8.8 5.5-17v-30.3h-12.1v30.1c0 8.9-3.2 13-10.3 13-7 0-10.2-4.1-10.2-13z" fill="#c02126"/><path d="m657.2 260.3v52.3h12.1v-25.2c0-12.9 3-17.6 11.1-17.6 7.5 0 9.8 3.4 9.8 13.7v29.2h12.1v-32.1c0-14.7-6.1-21.6-18.9-21.6-5.7 0-9.3 1.6-14 6.2v-4.8h-12.2z" fill="#c02126"/><path d="m302.9 264.4c-10.2 0-18.5 8.3-18.5 18.5s8.3 18.5 18.5 18.5 18.5-8.3 18.5-18.5-8.3-18.5-18.5-18.5zm-28.8 18.5c0-15.9 12.9-28.8 28.8-28.8s28.8 12.9 28.8 28.8c0 1.1-.1 2.1-.2 3.1-.2 2.8 1.8 4.9 4.6 4.9 4.7 0 5.2-6.1 5.2-8.1 0-21.3-17.2-38.5-38.5-38.5s-38.5 17.2-38.5 38.5 17.2 38.5 38.5 38.5c11.3 0 21.4-4.9 28.5-12.6l7.9 6.6c-8.9 10-21.9 16.3-36.4 16.3-27 0-48.8-21.9-48.8-48.8 0-27 21.9-48.8 48.8-48.8 27 0 48.8 21.9 48.8 48.8 0 10.8-5.2 19.6-15.5 19.6-4.6 0-7.3-2.1-8.9-4.4-5.1 8.2-14.1 13.6-24.5 13.6-15.7.1-28.6-12.8-28.6-28.7zm28.8-8.5c4.7 0 8.5 3.8 8.5 8.4 0 4.7-3.8 8.5-8.5 8.5s-8.5-3.8-8.5-8.5c.1-4.6 3.8-8.4 8.5-8.4z" fill="#c02126"/></g></svg>